<svg
    width="24"
    height="24"
    viewBox="0 0 24 24"
    fill="none"
    xmlns="http://www.w3.org/2000/svg"
>
    <path
    fill-rule="evenodd"
    clip-rule="evenodd"
    d="M18.5 2.5C20.1569 2.5 21.5 3.84315 21.5 5.5V17.5C21.5 19.1569 20.1569 20.5 18.5 20.5H18C18 21.0523 17.5523 21.5 17 21.5H16C15.4477 21.5 15 21.0523 15 20.5H10C10 21.0523 9.55228 21.5 9 21.5H8C7.44772 21.5 7 21.0523 7 20.5H6.5C4.84315 20.5 3.5 19.1569 3.5 17.5V17C2.94772 17 2.5 16.5523 2.5 16V15C2.5 14.4477 2.94772 14 3.5 14V9C2.94772 9 2.5 8.55228 2.5 8V7C2.5 6.44772 2.94772 6 3.5 6V5.5C3.5 3.84315 4.84315 2.5 6.5 2.5H18.5ZM18.5 4.5H6.5C5.98716 4.5 5.56449 4.88604 5.50673 5.38338L5.5 5.5V6C6.05228 6 6.5 6.44772 6.5 7V8C6.5 8.55228 6.05228 9 5.5 9V14C6.05228 14 6.5 14.4477 6.5 15V16C6.5 16.5523 6.05228 17 5.5 17V17.5C5.5 18.0128 5.88604 18.4355 6.38338 18.4933L6.5 18.5H18.5C19.0128 18.5 19.4355 18.114 19.4933 17.6166L19.5 17.5V5.5C19.5 4.98716 19.114 4.56449 18.6166 4.50673L18.5 4.5ZM12.5 6.5C15.2614 6.5 17.5 8.73858 17.5 11.5C17.5 14.2614 15.2614 16.5 12.5 16.5C9.73858 16.5 7.5 14.2614 7.5 11.5C7.5 8.73858 9.73858 6.5 12.5 6.5ZM12.5 8.5C10.8431 8.5 9.5 9.84315 9.5 11.5C9.5 13.1569 10.8431 14.5 12.5 14.5C14.1569 14.5 15.5 13.1569 15.5 11.5C15.5 9.84315 14.1569 8.5 12.5 8.5Z"
    fill="#020203"
    ></path>
</svg>