 <svg
    width="24"
    height="24"
    viewBox="0 0 24 24"
    fill="none"
    xmlns="http://www.w3.org/2000/svg"
    >
    <path
        fill-rule="evenodd"
        clip-rule="evenodd"
        d="M12 2C17.5228 2 22 6.47715 22 12C22 17.5228 17.5228 22 12 22C6.47715 22 2 17.5228 2 12C2 6.47715 6.47715 2 12 2ZM12 4C7.58172 4 4 7.58172 4 12C4 16.4183 7.58172 20 12 20C16.4183 20 20 16.4183 20 12C20 7.58172 16.4183 4 12 4Z"
        fill="#020203"
    ></path>
    <path
        fill-rule="evenodd"
        clip-rule="evenodd"
        d="M13.6002 7C15.0606 7.00163 16.2436 8.20508 16.2452 9.68964V17H14.5182V9.68975C14.5177 9.17312 14.1066 8.75491 13.6001 8.75445H10.4792C9.97255 8.75491 9.56145 9.17312 9.561 9.68964V17H7.83398V9.68951C7.83559 8.20508 9.01858 7.00163 10.4791 7H13.6002Z"
        fill="#020203"
    ></path>
</svg>